<svg xmlns="http://www.w3.org/2000/svg" width="1400" height="400" viewBox="0 0 1400 400">
  <defs>
    <linearGradient id="banner-bg" x1="0%" y1="0%" x2="100%" y2="100%">
      <stop offset="0%" stop-color="#10233a"/>
      <stop offset="100%" stop-color="#09111e"/>
    </linearGradient>
    <linearGradient id="accent" x1="0%" y1="0%" x2="100%" y2="0%">
      <stop offset="0%" stop-color="#1b6c79" stop-opacity="0.4"/>
      <stop offset="100%" stop-color="#5fd1c8" stop-opacity="0.7"/>
    </linearGradient>
  </defs>
  <rect width="1400" height="400" fill="url(#banner-bg)"/>

  <g opacity="0.15" stroke="#5fd1c8" stroke-width="2">
    <path d="M100 40 l200 0 l0 240 l200 0 l0 80" fill="none"/>
    <path d="M140 340 h180"/>
    <path d="M220 120 v140 l120 0"/>
    <path d="M180 80 v80 l120 0"/>
    <circle cx="180" cy="80" r="10" fill="none"/>
    <circle cx="220" cy="120" r="10" fill="none"/>
    <circle cx="220" cy="260" r="10" fill="none"/>
    <circle cx="340" cy="260" r="10" fill="none"/>
  </g>

  <g transform="translate(160,60)">
    <rect x="-60" y="-20" width="320" height="320" rx="36" fill="none" stroke="#5fd1c8" stroke-width="6" opacity="0.35"/>
    <g stroke="#5fd1c8" stroke-width="8" stroke-linecap="round" stroke-linejoin="round" fill="none">
      <path d="M0 40v200"/>
      <path d="M200 40v200"/>
      <path d="M40 100h160"/>
      <path d="M40 200h120"/>
      <circle cx="40" cy="100" r="14" fill="#0c273f" stroke-width="6"/>
      <circle cx="200" cy="100" r="14" fill="#0c273f" stroke-width="6"/>
      <circle cx="40" cy="200" r="14" fill="#0c273f" stroke-width="6"/>
      <circle cx="160" cy="200" r="14" fill="#0c273f" stroke-width="6"/>
    </g>
    <path d="M-80 30s0-28 24-28h20" fill="none" stroke="#5fd1c8" stroke-width="8" stroke-linecap="round"/>
    <path d="M280 30s0-28-24-28h-20" fill="none" stroke="#5fd1c8" stroke-width="8" stroke-linecap="round"/>
    <path d="M-80 250s0 28 24 28h20" fill="none" stroke="#5fd1c8" stroke-width="8" stroke-linecap="round"/>
    <path d="M280 250s0 28-24 28h-20" fill="none" stroke="#5fd1c8" stroke-width="8" stroke-linecap="round"/>
  </g>

  <rect x="0" y="340" width="1400" height="60" fill="url(#accent)"/>

  <g transform="translate(520,120)" fill="#f5fbff">
    <text font-family="Inter, 'Segoe UI', Helvetica, Arial, sans-serif" font-size="64" font-weight="600">
      ASN.1 &amp; SNMP MIB Tools
    </text>
    <text y="110" font-family="Inter, 'Segoe UI', Helvetica, Arial, sans-serif" font-size="30" opacity="0.75">
      Syntax highlighting • Semantic tokens • Language server management
    </text>
  </g>
</svg>
