<svg xmlns="http://www.w3.org/2000/svg" width="128" height="128" viewBox="0 0 128 128">
  <defs>
    <linearGradient id="bg" x1="0%" y1="0%" x2="100%" y2="100%">
      <stop offset="0%" stop-color="#10233a"/>
      <stop offset="100%" stop-color="#0a1727"/>
    </linearGradient>
  </defs>
  <rect width="128" height="128" rx="16" fill="url(#bg)"/>
  <g stroke="#5fd1c8" stroke-width="4" stroke-linecap="round" stroke-linejoin="round" fill="none">
    <path d="M28 36v56"/>
    <path d="M100 36v56"/>
    <path d="M44 52h40"/>
    <path d="M44 76h24"/>
    <circle cx="44" cy="52" r="6" fill="#0c273f" stroke-width="3"/>
    <circle cx="84" cy="52" r="6" fill="#0c273f" stroke-width="3"/>
    <circle cx="44" cy="76" r="6" fill="#0c273f" stroke-width="3"/>
    <circle cx="68" cy="76" r="6" fill="#0c273f" stroke-width="3"/>
  </g>
  <path d="M20 32s0-8 8-8h8" fill="none" stroke="#5fd1c8" stroke-width="4" stroke-linecap="round"/>
  <path d="M108 32s0-8-8-8h-8" fill="none" stroke="#5fd1c8" stroke-width="4" stroke-linecap="round"/>
  <path d="M20 96s0 8 8 8h8" fill="none" stroke="#5fd1c8" stroke-width="4" stroke-linecap="round"/>
  <path d="M108 96s0 8-8 8h-8" fill="none" stroke="#5fd1c8" stroke-width="4" stroke-linecap="round"/>
  <text x="92" y="114" text-anchor="end" font-family="Fira Code, 'Courier New', monospace" font-size="16" fill="#f5fbff" opacity="0.9">.asn</text>
</svg>
